<?xml version="1.0" encoding="UTF-8"?>
<svg version="1.1" xmlns="http://www.w3.org/2000/svg" width="512" height="512">
<path d="M0 0 C1.16293579 0.00273422 1.16293579 0.00273422 2.34936523 0.00552368 C14.474998 0.05350978 26.19309271 0.6492231 38.0625 3.3125 C38.83335937 3.47878906 39.60421875 3.64507812 40.3984375 3.81640625 C62.95307484 8.80800632 95.27352904 19.16668692 109.0625 39.3125 C109.81901298 42.29961377 109.46462542 44.14576231 109.0625 47.3125 C107.04863521 50.45412908 105.72291859 51.15263677 102.109375 52.02734375 C96.91957446 52.67328459 91.95416885 51.43641009 86.875 50.4375 C78.93934915 48.97421492 71.14596243 47.56614207 63.0625 47.3125 C61.83917969 47.27253906 60.61585938 47.23257813 59.35546875 47.19140625 C37.81993424 46.72799335 14.28458411 49.82778335 -1.9375 65.3125 C-8.42881732 73.33956801 -9.90877924 82.19905495 -8.9375 92.3125 C-7.21207579 100.71413948 -4.23282153 107.59052631 1.0625 114.3125 C1.55234375 114.97636719 2.0421875 115.64023438 2.546875 116.32421875 C9.79800232 125.45992124 20.56272444 131.59589653 31.0625 136.3125 C31.949375 135.36375 32.83625 134.415 33.75 133.4375 C58.7617484 108.52620039 93.87009955 93.61440952 128.0625 87.3125 C129.31804687 87.06757812 130.57359375 86.82265625 131.8671875 86.5703125 C179.77855391 78.91707454 229.86067569 91.78210898 269.203125 119.52734375 C276.267587 124.68077821 282.70856857 130.321293 289.0625 136.3125 C306.06028377 128.77834719 320.27277776 117.85407606 327.1875 100.0390625 C330.19673277 90.66207824 330.47511748 80.27195906 326.0625 71.3125 C319.17665558 59.17705142 306.77500358 54.2375743 294.0625 50.3125 C290.73701909 49.40513822 287.4795978 48.75323121 284.0625 48.3125 C283.24136719 48.20292969 282.42023438 48.09335937 281.57421875 47.98046875 C262.79411028 45.89379003 243.95650077 47.7679036 225.578125 51.82421875 C220.79834163 52.48807755 216.74736517 52.39254177 212.625 49.75 C210.82479774 46.94168448 210.36478194 44.72711733 210.5625 41.390625 C212.67013536 32.63076552 223.51000978 27.4704675 230.5625 23.15234375 C246.57859233 13.60496285 263.86697588 7.23762142 282.0625 3.3125 C282.79210937 3.14878906 283.52171875 2.98507812 284.2734375 2.81640625 C306.28763148 -1.92330455 333.57970068 -2.80162962 355.0625 4.3125 C356.20460938 4.663125 357.34671875 5.01375 358.5234375 5.375 C378.60942159 12.24526534 395.43874198 27.26302423 405.06640625 46.09765625 C416.47166156 69.95129381 421.37012113 102.1932953 413.38671875 127.82421875 C412.94972656 128.97535156 412.51273437 130.12648437 412.0625 131.3125 C411.81580566 131.9720166 411.56911133 132.6315332 411.31494141 133.31103516 C403.16875403 154.64914536 387.75396351 173.94003802 370.0625 188.3125 C369.2897876 188.95372803 369.2897876 188.95372803 368.50146484 189.60791016 C361.47767553 195.43314098 354.33471618 200.98235393 346.75 206.0625 C346.1098999 206.49280518 345.4697998 206.92311035 344.81030273 207.36645508 C340.32146862 210.3125 340.32146862 210.3125 338.0625 210.3125 C338.25884033 210.98490723 338.45518066 211.65731445 338.6574707 212.35009766 C351.3077365 256.14834379 353.61827834 303.86701563 334.06640625 346.25390625 C332.8944233 349.82457803 333.01881982 351.72576813 334.0625 355.3125 C335.2555211 357.51362245 335.2555211 357.51362245 336.8125 359.5 C347.70652653 375.14873355 350.50425311 393.99593998 347.44140625 412.625 C343.57748039 431.81290453 332.14910219 447.04302541 316.34765625 458.27734375 C299.56138202 468.67645062 282.49750195 470.91984381 263.0625 470.3125 C263.09730469 471.13492187 263.13210938 471.95734375 263.16796875 472.8046875 C263.44625665 484.28075058 261.66297937 493.40672091 254.0625 502.3125 C244.27194749 511.64978619 235.25822083 512.76153468 222.16040039 512.71655273 C220.65659581 512.72226235 219.15279556 512.7292289 217.64900208 512.73735046 C213.58282252 512.75523149 209.51685936 512.7541231 205.45065236 512.74840808 C202.04866923 512.74530896 198.64672723 512.75141669 195.24474996 512.75744683 C187.2156218 512.77147377 179.18660007 512.76994597 171.1574707 512.75854492 C162.89014659 512.74706464 154.62314691 512.76114193 146.35586554 512.7879414 C139.2422235 512.81013288 132.12868305 512.81672805 125.01500887 512.81086498 C120.77316701 512.80750254 116.53153309 512.80986291 112.28972054 512.82711601 C108.29962934 512.84263833 104.31001703 512.83857158 100.31994438 512.81981087 C98.86112939 512.81613958 97.40227849 512.81919065 95.9434967 512.82969666 C87.76245067 512.88408831 81.19677146 512.53742583 74.0625 508.3125 C73.26457031 507.85488281 72.46664062 507.39726562 71.64453125 506.92578125 C63.64713824 501.04690294 58.68293941 493.14593575 57.0625 483.3125 C56.8455974 478.96480795 56.87848809 474.66063326 57.0625 470.3125 C55.94875 470.34730469 54.835 470.38210938 53.6875 470.41796875 C28.80615441 470.96460021 9.12352658 464.6165717 -9.25 447.4375 C-22.71531828 433.32964579 -28.50402601 415.05574731 -28.35473633 395.89990234 C-27.93193155 381.76461837 -23.9126196 366.06273921 -14.12890625 355.328125 C-12.23904828 352.13085709 -13.11771153 349.84504306 -13.9375 346.3125 C-14.8009502 343.85330639 -15.70293289 341.47000466 -16.6875 339.0625 C-31.98371061 299.69174576 -31.67745627 256.51321698 -19.44067383 216.43701172 C-18.78385574 214.02766066 -18.78385574 214.02766066 -18.9375 210.3125 C-21.35366346 208.5572194 -23.66630561 207.09086644 -26.25 205.625 C-36.34566527 199.61281196 -44.92741183 192.3457411 -53.59375 184.43359375 C-55.73674312 182.49418497 -57.92094638 180.61920701 -60.125 178.75 C-78.05397226 162.99964787 -92.54077306 139.11855852 -95.9375 115.3125 C-97.68573568 83.61276733 -93.79313353 52.96316544 -72.42578125 27.96875 C-60.47031451 15.20624233 -45.03463889 6.19455624 -27.9375 2.3125 C-27.20039795 2.13807373 -26.4632959 1.96364746 -25.70385742 1.78393555 C-17.16948014 -0.02653314 -8.67831883 -0.04217151 0 0 Z " fill="#F4F4F4" transform="translate(95.9375,-0.3125)"/>
<path d="M0 0 C1.16293579 0.00273422 1.16293579 0.00273422 2.34936523 0.00552368 C14.474998 0.05350978 26.19309271 0.6492231 38.0625 3.3125 C38.83335937 3.47878906 39.60421875 3.64507812 40.3984375 3.81640625 C62.95307484 8.80800632 95.27352904 19.16668692 109.0625 39.3125 C109.81901298 42.29961377 109.46462542 44.14576231 109.0625 47.3125 C107.04863521 50.45412908 105.72291859 51.15263677 102.109375 52.02734375 C96.91957446 52.67328459 91.95416885 51.43641009 86.875 50.4375 C78.93934915 48.97421492 71.14596243 47.56614207 63.0625 47.3125 C61.83917969 47.27253906 60.61585938 47.23257813 59.35546875 47.19140625 C37.81993424 46.72799335 14.28458411 49.82778335 -1.9375 65.3125 C-8.42881732 73.33956801 -9.90877924 82.19905495 -8.9375 92.3125 C-7.21207579 100.71413948 -4.23282153 107.59052631 1.0625 114.3125 C1.55234375 114.97636719 2.0421875 115.64023438 2.546875 116.32421875 C9.79800232 125.45992124 20.56272444 131.59589653 31.0625 136.3125 C31.949375 135.36375 32.83625 134.415 33.75 133.4375 C58.7617484 108.52620039 93.87009955 93.61440952 128.0625 87.3125 C129.31804687 87.06757812 130.57359375 86.82265625 131.8671875 86.5703125 C179.77855391 78.91707454 229.86067569 91.78210898 269.203125 119.52734375 C276.267587 124.68077821 282.70856857 130.321293 289.0625 136.3125 C306.06028377 128.77834719 320.27277776 117.85407606 327.1875 100.0390625 C330.19673277 90.66207824 330.47511748 80.27195906 326.0625 71.3125 C319.17665558 59.17705142 306.77500358 54.2375743 294.0625 50.3125 C290.73701909 49.40513822 287.4795978 48.75323121 284.0625 48.3125 C283.24136719 48.20292969 282.42023438 48.09335937 281.57421875 47.98046875 C262.79411028 45.89379003 243.95650077 47.7679036 225.578125 51.82421875 C220.79834163 52.48807755 216.74736517 52.39254177 212.625 49.75 C210.82479774 46.94168448 210.36478194 44.72711733 210.5625 41.390625 C212.67013536 32.63076552 223.51000978 27.4704675 230.5625 23.15234375 C246.57859233 13.60496285 263.86697588 7.23762142 282.0625 3.3125 C282.79210937 3.14878906 283.52171875 2.98507812 284.2734375 2.81640625 C306.28763148 -1.92330455 333.57970068 -2.80162962 355.0625 4.3125 C356.20460938 4.663125 357.34671875 5.01375 358.5234375 5.375 C378.60942159 12.24526534 395.43874198 27.26302423 405.06640625 46.09765625 C416.47166156 69.95129381 421.37012113 102.1932953 413.38671875 127.82421875 C412.94972656 128.97535156 412.51273437 130.12648437 412.0625 131.3125 C411.81580566 131.9720166 411.56911133 132.6315332 411.31494141 133.31103516 C403.16875403 154.64914536 387.75396351 173.94003802 370.0625 188.3125 C369.2897876 188.95372803 369.2897876 188.95372803 368.50146484 189.60791016 C361.47767553 195.43314098 354.33471618 200.98235393 346.75 206.0625 C346.1098999 206.49280518 345.4697998 206.92311035 344.81030273 207.36645508 C340.32146862 210.3125 340.32146862 210.3125 338.0625 210.3125 C338.25884033 210.98490723 338.45518066 211.65731445 338.6574707 212.35009766 C351.3077365 256.14834379 353.61827834 303.86701563 334.06640625 346.25390625 C332.8944233 349.82457803 333.01881982 351.72576813 334.0625 355.3125 C335.2555211 357.51362245 335.2555211 357.51362245 336.8125 359.5 C347.70652653 375.14873355 350.50425311 393.99593998 347.44140625 412.625 C343.57748039 431.81290453 332.14910219 447.04302541 316.34765625 458.27734375 C299.56138202 468.67645062 282.49750195 470.91984381 263.0625 470.3125 C263.09730469 471.13492187 263.13210938 471.95734375 263.16796875 472.8046875 C263.44625665 484.28075058 261.66297937 493.40672091 254.0625 502.3125 C244.27194749 511.64978619 235.25822083 512.76153468 222.16040039 512.71655273 C220.65659581 512.72226235 219.15279556 512.7292289 217.64900208 512.73735046 C213.58282252 512.75523149 209.51685936 512.7541231 205.45065236 512.74840808 C202.04866923 512.74530896 198.64672723 512.75141669 195.24474996 512.75744683 C187.2156218 512.77147377 179.18660007 512.76994597 171.1574707 512.75854492 C162.89014659 512.74706464 154.62314691 512.76114193 146.35586554 512.7879414 C139.2422235 512.81013288 132.12868305 512.81672805 125.01500887 512.81086498 C120.77316701 512.80750254 116.53153309 512.80986291 112.28972054 512.82711601 C108.29962934 512.84263833 104.31001703 512.83857158 100.31994438 512.81981087 C98.86112939 512.81613958 97.40227849 512.81919065 95.9434967 512.82969666 C87.76245067 512.88408831 81.19677146 512.53742583 74.0625 508.3125 C73.26457031 507.85488281 72.46664062 507.39726562 71.64453125 506.92578125 C63.64713824 501.04690294 58.68293941 493.14593575 57.0625 483.3125 C56.8455974 478.96480795 56.87848809 474.66063326 57.0625 470.3125 C55.94875 470.34730469 54.835 470.38210938 53.6875 470.41796875 C28.80615441 470.96460021 9.12352658 464.6165717 -9.25 447.4375 C-22.71531828 433.32964579 -28.50402601 415.05574731 -28.35473633 395.89990234 C-27.93193155 381.76461837 -23.9126196 366.06273921 -14.12890625 355.328125 C-12.23904828 352.13085709 -13.11771153 349.84504306 -13.9375 346.3125 C-14.8009502 343.85330639 -15.70293289 341.47000466 -16.6875 339.0625 C-31.98371061 299.69174576 -31.67745627 256.51321698 -19.44067383 216.43701172 C-18.78385574 214.02766066 -18.78385574 214.02766066 -18.9375 210.3125 C-21.35366346 208.5572194 -23.66630561 207.09086644 -26.25 205.625 C-36.34566527 199.61281196 -44.92741183 192.3457411 -53.59375 184.43359375 C-55.73674312 182.49418497 -57.92094638 180.61920701 -60.125 178.75 C-78.05397226 162.99964787 -92.54077306 139.11855852 -95.9375 115.3125 C-97.68573568 83.61276733 -93.79313353 52.96316544 -72.42578125 27.96875 C-60.47031451 15.20624233 -45.03463889 6.19455624 -27.9375 2.3125 C-27.20039795 2.13807373 -26.4632959 1.96364746 -25.70385742 1.78393555 C-17.16948014 -0.02653314 -8.67831883 -0.04217151 0 0 Z M117.625 107.5625 C116.42689697 107.89000244 116.42689697 107.89000244 115.20458984 108.22412109 C89.84958745 115.33963616 66.83652826 127.89652652 47.0625 145.3125 C47.47242188 145.91578125 47.88234375 146.5190625 48.3046875 147.140625 C48.84351563 147.93984375 49.38234375 148.7390625 49.9375 149.5625 C50.47117188 150.35140625 51.00484375 151.1403125 51.5546875 151.953125 C56.04049537 158.9723684 56.02881198 166.16950732 55.0625 174.3125 C53.86322497 178.91137282 52.14311824 183.04752079 50.0625 187.3125 C49.50369141 188.52679688 49.50369141 188.52679688 48.93359375 189.765625 C45.71585791 196.17867343 41.06308058 201.22480129 36.0625 206.3125 C35.50820312 206.8796875 34.95390625 207.446875 34.3828125 208.03125 C32.68764881 209.61677623 30.95394414 210.96561752 29.0625 212.3125 C28.17433594 212.94542969 27.28617188 213.57835937 26.37109375 214.23046875 C16.93710392 220.14589917 8.90471389 220.07912118 -1.9375 219.3125 C-3.29551319 223.97248435 -4.62102242 228.640668 -5.9375 233.3125 C-6.22238281 234.28058594 -6.50726563 235.24867188 -6.80078125 236.24609375 C-16.34968856 270.76906633 -11.05046843 309.70257128 3.2734375 342.046875 C5.23444922 347.67750271 5.03289933 354.41379642 3.15234375 360.03125 C1.90985367 362.55618161 0.55454704 364.92677896 -0.9375 367.3125 C-1.98149885 368.99855815 -3.0231571 370.68606778 -4.0625 372.375 C-4.53945312 373.10847656 -5.01640625 373.84195312 -5.5078125 374.59765625 C-9.35224461 381.89787568 -10.49524978 388.73919754 -10.4375 396.9375 C-10.43105469 397.89954346 -10.42460938 398.86158691 -10.41796875 399.8527832 C-10.04672376 414.48154546 -4.93504973 426.03084549 5.26171875 436.58984375 C14.79861321 445.5275616 27.84146074 452.49177018 41.14453125 452.41015625 C42.07587891 452.40693359 43.00722656 452.40371094 43.96679688 452.40039062 C44.92650391 452.39201172 45.88621094 452.38363281 46.875 452.375 C47.85404297 452.37048828 48.83308594 452.36597656 49.84179688 452.36132812 C52.24876111 452.34958684 54.65559857 452.33316419 57.0625 452.3125 C58.00181094 438.92195037 58.00181094 438.92195037 52.0625 427.3125 C47.79302612 422.76082209 43.3805545 419.82592908 37.765625 417.1953125 C35.30734977 415.92106892 34.15855907 414.86997116 33.0625 412.3125 C33.12749461 408.60780706 33.31702211 406.26671169 35.625 403.3125 C39.34515622 401.78628206 42.31823922 402.19984822 46.0625 403.3125 C59.02985733 408.78634807 66.52206694 417.49463324 72.0625 430.3125 C73.94647196 436.55334424 74.33003127 442.16153395 74.30078125 448.65625 C74.31619394 450.64453813 74.33249705 452.63281952 74.34960938 454.62109375 C74.36606783 457.72166959 74.37497895 460.82174723 74.36791992 463.92236328 C74.36529148 466.93838585 74.39346616 469.95292626 74.42578125 472.96875 C74.41047112 474.34565002 74.41047112 474.34565002 74.39485168 475.75036621 C74.49079954 482.11289262 75.95115704 486.39910191 80.0625 491.3125 C84.74188663 495.21198885 87.75040784 495.49718138 93.8125 495.40625 C95.56820312 495.38594727 95.56820312 495.38594727 97.359375 495.36523438 C98.25140625 495.34783203 99.1434375 495.33042969 100.0625 495.3125 C100.0718457 494.49048096 100.08119141 493.66846191 100.09082031 492.8215332 C100.14457871 489.08875038 100.22821831 485.35721319 100.3125 481.625 C100.32667969 480.33142578 100.34085937 479.03785156 100.35546875 477.70507812 C100.38769531 476.45791016 100.41992188 475.21074219 100.453125 473.92578125 C100.47407227 472.77891846 100.49501953 471.63205566 100.51660156 470.45043945 C101.17420461 466.67039833 102.32964973 464.97161349 105.0625 462.3125 C108.5625 461.75 108.5625 461.75 112.0625 462.3125 C115.05267877 464.52600896 115.96028322 465.72900495 116.60839844 469.42871094 C116.6293457 470.62270508 116.65029297 471.81669922 116.671875 473.046875 C116.70249023 474.21444336 116.73310547 475.38201172 116.76464844 476.58496094 C116.78833496 478.80134277 116.78833496 478.80134277 116.8125 481.0625 C116.895 485.765 116.9775 490.4675 117.0625 495.3125 C128.6125 495.3125 140.1625 495.3125 152.0625 495.3125 C152.27243433 485.57488249 152.27243433 485.57488249 152.45043945 475.83666992 C152.48355225 474.62599854 152.51666504 473.41532715 152.55078125 472.16796875 C152.59005737 470.30628052 152.59005737 470.30628052 152.63012695 468.40698242 C153.0625 465.3125 153.0625 465.3125 154.37963867 463.4074707 C157.24477631 461.54323999 159.7576442 461.96462044 163.0625 462.3125 C165.24707031 463.4074707 165.24707031 463.4074707 167.0625 465.3125 C167.60839844 468.40698242 167.60839844 468.40698242 167.671875 472.16796875 C167.70249023 473.37864014 167.73310547 474.58931152 167.76464844 475.83666992 C167.78043945 477.37556885 167.79623047 478.91446777 167.8125 480.5 C167.895 485.388125 167.9775 490.27625 168.0625 495.3125 C179.6125 495.3125 191.1625 495.3125 203.0625 495.3125 C203.23282391 485.94903251 203.23282391 485.94903251 203.36035156 476.58496094 C203.40627441 474.8336084 203.40627441 474.8336084 203.453125 473.046875 C203.47407227 471.85288086 203.49501953 470.65888672 203.51660156 469.42871094 C204.16293109 465.73919835 205.10140501 464.54039714 208.0625 462.3125 C211 461.75 211 461.75 214.0625 462.3125 C217.25987343 464.87529374 218.86879144 466.3907169 219.72192383 470.45043945 C219.7454895 472.17073364 219.7454895 472.17073364 219.76953125 473.92578125 C219.79853516 475.17294922 219.82753906 476.42011719 219.85742188 477.70507812 C219.86322266 478.99865234 219.86902344 480.29222656 219.875 481.625 C219.90013672 482.93791016 219.92527344 484.25082031 219.95117188 485.60351562 C220.01001968 488.84014489 220.04631937 492.07542218 220.0625 495.3125 C222.12188595 495.38385178 224.18199508 495.43450608 226.2421875 495.4765625 C227.38929199 495.5070166 228.53639648 495.5374707 229.71826172 495.56884766 C234.83749217 495.17644059 238.55199921 493.00536447 242.0625 489.3125 C245.47592697 483.9608429 245.48886352 479.37235018 245.46875 473.234375 C245.48500427 471.7844516 245.48500427 471.7844516 245.50158691 470.30523682 C245.53574481 467.22425644 245.55141154 464.14364445 245.5625 461.0625 C245.57716617 457.01527593 245.61106043 452.96886097 245.65625 448.921875 C245.65322876 448.00799011 245.65020752 447.09410522 245.64709473 446.15252686 C245.78822883 433.85783435 250.27576288 422.18677179 258.625 413.0625 C264.16909881 407.89228068 271.61250523 402.75047032 279.27734375 401.99609375 C282.0625 402.3125 282.0625 402.3125 285 404.375 C287.0625 407.3125 287.0625 407.3125 287.375 410.8125 C285.52465775 415.746746 282.58264329 416.95669788 278.0625 419.3125 C271.09233159 423.49460105 266.13617078 428.72718381 263.0625 436.3125 C262.72722233 439.11997472 262.77549013 441.86550222 262.875 444.6875 C262.89530273 445.79158203 262.89530273 445.79158203 262.91601562 446.91796875 C262.95105131 448.71646743 263.00484712 450.51458422 263.0625 452.3125 C266.20825207 452.37146868 269.3538586 452.40641603 272.5 452.4375 C273.37849609 452.45425781 274.25699219 452.47101563 275.16210938 452.48828125 C284.23420168 452.55523396 291.84341962 450.91014084 299.9375 446.8125 C300.96786377 446.29127563 300.96786377 446.29127563 302.01904297 445.75952148 C314.88278578 438.94603473 323.93296083 428.5720815 328.56933594 414.73999023 C332.06516773 402.53893968 331.99676207 387.80003932 326.69921875 376.203125 C324.29654997 371.95974815 321.58985827 367.96199557 318.80078125 363.96484375 C315.42711685 358.81716256 314.27446003 353.45606507 315.0625 347.3125 C316.25881173 343.22821699 317.78584694 339.28316714 319.3125 335.3125 C326.58028952 315.76006646 330.42946775 297.5740311 330.37817383 276.69360352 C330.37501735 274.01472076 330.39854535 271.33695007 330.42382812 268.65820312 C330.46376749 257.83064198 329.52041164 247.87036499 327.0625 237.3125 C326.86277588 236.41909912 326.66305176 235.52569824 326.45727539 234.60522461 C325.98044084 232.54011839 325.47055272 230.48868688 324.9375 228.4375 C324.76863281 227.76332031 324.59976562 227.08914062 324.42578125 226.39453125 C323.502103 222.7617527 323.502103 222.7617527 322.0625 219.3125 C320.99773437 219.39371094 319.93296875 219.47492188 318.8359375 219.55859375 C305.22095458 220.27948903 296.14716682 217.00266279 285.625 207.875 C284.08670191 206.37183433 282.56427408 204.85215667 281.0625 203.3125 C280.43988281 202.73371094 279.81726563 202.15492188 279.17578125 201.55859375 C269.54355702 191.88307862 264.79520889 177.73035053 264.74121094 164.39135742 C264.88452912 155.88232461 267.87884071 151.70495379 273.0625 145.3125 C242.37651081 117.6277353 203.18095942 103.12280578 162.10302734 103.12719727 C159.83021113 103.12501699 157.55788679 103.10680957 155.28515625 103.08789062 C142.48192389 103.03736286 130.01970706 104.13110273 117.625 107.5625 Z " fill="#020101" transform="translate(95.9375,-0.3125)"/>
<path d="M0 0 C16.20692642 15.20236486 23.21401853 36.33955335 24.27416992 58.18896484 C24.87160968 78.20036967 24.87160968 78.20036967 21.1484375 87.59765625 C20.78492188 88.56574219 20.42140625 89.53382812 20.046875 90.53125 C15.38671072 102.33198857 9.49374807 112.04629582 1.1484375 121.59765625 C0.41367187 122.45488281 -0.32109375 123.31210938 -1.078125 124.1953125 C-14.43470852 139.46335056 -30.70652384 150.9955397 -47.8515625 161.59765625 C-48.92277344 162.26667969 -49.99398437 162.93570313 -51.09765625 163.625 C-59.62234736 168.64995662 -59.62234736 168.64995662 -64.828125 168.171875 C-74.418786 165.45020093 -83.13895148 157.62807861 -87.93359375 149.046875 C-95.73230652 134.13466772 -95.73230652 134.13466772 -93.8515625 126.59765625 C-90.61930212 122.7259832 -87.53123238 120.71237344 -82.9140625 118.78515625 C-72.02051723 113.97373762 -62.00124247 108.27455071 -52.8515625 100.59765625 C-52.26246094 100.15292969 -51.67335938 99.70820313 -51.06640625 99.25 C-38.00401487 89.04407689 -30.15301733 72.7649009 -27.8515625 56.59765625 C-26.60878037 42.8196519 -30.06202205 31.90632919 -37.8515625 20.59765625 C-38.25632812 19.9840625 -38.66109375 19.37046875 -39.078125 18.73828125 C-50.10632423 3.9889105 -71.68314341 -2.43443497 -89.02490234 -5.05908203 C-97.58526405 -6.09862846 -106.23647343 -6.26634071 -114.8515625 -6.40234375 C-112.2458164 -9.00808985 -109.41471333 -9.7183038 -105.9765625 -10.77734375 C-105.27837402 -10.99358398 -104.58018555 -11.20982422 -103.86083984 -11.43261719 C-98.12608896 -13.14437058 -92.34199112 -14.47217925 -86.4765625 -15.65234375 C-85.66977051 -15.81524902 -84.86297852 -15.9781543 -84.03173828 -16.14599609 C-54.78043991 -21.76688067 -23.64205035 -19.91761776 0 0 Z " fill="#FDDD00" transform="translate(470.8515625,35.40234375)"/>
<path d="M0 0 C0.99 0.99 0.99 0.99 2 2 C1.13947021 2.03963867 0.27894043 2.07927734 -0.60766602 2.12011719 C-3.87956245 2.27872804 -7.15004271 2.45212934 -10.4206543 2.63476562 C-11.82140089 2.7101278 -13.22245549 2.78001574 -14.6237793 2.84375 C-27.7808629 3.44889075 -40.46655315 5.45963658 -52.25 11.75 C-52.91056396 12.09361572 -53.57112793 12.43723145 -54.25170898 12.79125977 C-68.37163073 20.32199903 -77.11823243 29.04284889 -83 44 C-83.433125 45.093125 -83.86625 46.18625 -84.3125 47.3125 C-87.38333816 63.7833592 -83.18490637 80.18849582 -74 94 C-62.01301902 110.74178426 -43.65712986 123.02658637 -24.3203125 129.8671875 C-21.59764144 131.19643768 -20.50726202 132.39033922 -19 135 C-17.82603276 144.55944754 -21.90086481 153.27761261 -27.37890625 160.94140625 C-32.38588833 167.29967024 -38.35103085 173.0040623 -46 176 C-52.12704041 176.61332356 -55.96704228 175.58029726 -61.25 172.375 C-62.25667725 171.78525391 -62.25667725 171.78525391 -63.28369141 171.18359375 C-76.3848443 163.33780662 -88.97142555 154.58060527 -100 144 C-101.34937779 142.84853095 -102.70344093 141.70252625 -104.0625 140.5625 C-119.54589821 126.97566262 -131.03760488 109.04044184 -136 89 C-136.17200928 88.390354 -136.34401855 87.78070801 -136.52124023 87.15258789 C-139.0777459 75.65808996 -137.32733866 61.35580758 -135 50 C-134.63261719 48.18822266 -134.63261719 48.18822266 -134.2578125 46.33984375 C-130.92449792 32.07738712 -124.58172071 20.22713042 -114 10 C-113.34128906 9.35546875 -112.68257812 8.7109375 -112.00390625 8.046875 C-82.56641056 -19.19909686 -34.59870617 -12.69344566 0 0 Z " fill="#FDDD00" transform="translate(154,27)"/>
<path d="M0 0 C1.09489746 -0.02215576 2.18979492 -0.04431152 3.31787109 -0.06713867 C11.08519343 -0.04610042 11.08519343 -0.04610042 15.125 2.24609375 C17.63369637 5.27923742 17.86797458 7.54407636 17.9375 11.4375 C16.83541992 14.83558026 16.01652124 15.38481917 12.9375 17.4375 C10.45703125 17.6328125 10.45703125 17.6328125 7.75 17.5625 C6.84894531 17.54445313 5.94789063 17.52640625 5.01953125 17.5078125 C4.33246094 17.48460937 3.64539063 17.46140625 2.9375 17.4375 C3.33582031 18.18193359 3.33582031 18.18193359 3.7421875 18.94140625 C4.09539062 19.62074219 4.44859375 20.30007813 4.8125 21 C5.16054688 21.66128906 5.50859375 22.32257813 5.8671875 23.00390625 C11.46202201 35.72500808 10.47643934 51.33454475 5.546875 64.1015625 C-1.69055118 79.10341192 -12.88129648 87.71858377 -28.33203125 93.25 C-40.97355649 96.7306494 -54.26582676 94.94342183 -65.77734375 89.046875 C-79.09854538 81.43475979 -87.21855337 71.08943773 -92.0625 56.4375 C-93.35625395 50.01817307 -94.72500847 43.1529305 -91.1875 37.375 C-87.89222163 34.37048148 -85.48688728 34.17996069 -81.125 33.625 C-68.00056032 31.61807248 -57.772104 26.61086708 -48.5625 16.875 C-35.60391625 3.26225698 -17.91325054 0.19960847 0 0 Z " fill="#020203" transform="translate(366.0625,289.5625)"/>
<path d="M0 0 C1.6092334 0.02767456 1.6092334 0.02767456 3.25097656 0.0559082 C21.64072561 0.55994618 37.96048095 5.38327306 50.875 19 C60.32514208 28.64521382 72.3405339 33.1589373 85.625 34.16015625 C88.65758768 34.70981277 90.40491357 36.33944212 92.5 38.5 C95.89860927 45.29721855 92.94518897 53.80467266 90.7644043 60.59619141 C86.54553046 72.70876625 77.56473352 82.92191518 66.3828125 89.1796875 C54.06796578 94.81982055 40.19749473 96.87176643 27.125 92.8125 C11.97747141 86.98029648 0.98857669 77.53578094 -5.81640625 62.61328125 C-10.22457388 50.61753589 -10.75020062 35.41156881 -5.5703125 23.59375 C-5.21710938 22.9028125 -4.86390625 22.211875 -4.5 21.5 C-4.12617188 20.7471875 -3.75234375 19.994375 -3.3671875 19.21875 C-3.08101562 18.6515625 -2.79484375 18.084375 -2.5 17.5 C-3.17546875 17.54640625 -3.8509375 17.5928125 -4.546875 17.640625 C-11.90113201 17.93819609 -11.90113201 17.93819609 -15.0625 15.625 C-17.48280219 12.04716198 -18.09815982 9.85802156 -17.5 5.5 C-12.38178653 -0.41495736 -7.50201181 -0.22157105 0 0 Z " fill="#020203" transform="translate(145.5,289.5)"/>
<path d="M0 0 C2.7724272 9.26018831 5.15463647 18.50284247 7 28 C7.17345947 28.87035889 7.34691895 29.74071777 7.52563477 30.63745117 C8.10790751 34.76490487 8.18135001 38.79390562 8.203125 42.95703125 C8.20882507 43.81826096 8.21452515 44.67949066 8.22039795 45.56681824 C8.22981882 47.38982936 8.23637031 49.2128573 8.24023438 51.03588867 C8.2498357 53.76578483 8.28084251 56.49489291 8.3125 59.22460938 C8.40827032 74.7413418 6.3665996 88.92605347 1.625 103.75 C1.32263428 104.72517578 1.02026855 105.70035156 0.70874023 106.70507812 C-0.97711058 112.06343663 -2.8320462 117.29335071 -4.9375 122.5 C-7.69467545 129.45208596 -7.59974568 134.64088062 -5.11328125 141.62890625 C-3.87457242 144.26713873 -2.36378054 146.41268499 -0.625 148.75 C8.40479587 161.32653098 9.6332001 173.8858351 8 189 C5.83247397 201.87554586 -1.34649233 212.74524311 -11.24609375 221.078125 C-14.71605013 223.49971158 -18.3017845 225.50548884 -22.0625 227.4375 C-22.72314453 227.77998779 -23.38378906 228.12247559 -24.06445312 228.4753418 C-28.74116922 230.7493892 -32.81661869 231.58972121 -38 232 C-37.28457031 231.44054687 -36.56914062 230.88109375 -35.83203125 230.3046875 C-26.09263815 222.37883657 -19.44358685 214.24581 -14 203 C-13.54496094 202.11570312 -13.08992188 201.23140625 -12.62109375 200.3203125 C-7.44610344 188.16719936 -7.90937292 170.55687708 -12.0625 158.125 C-14.70387084 152.00456643 -18.17454112 146.44429287 -22 141 C-25.02781257 136.45828114 -24.56797111 132.32810997 -24 127 C-22.85835001 122.44936231 -21.29832427 118.09081387 -19.6875 113.6875 C-15.5518003 101.86629168 -12.2503715 90.50371496 -11 78 C-11.53625 78.350625 -12.0725 78.70125 -12.625 79.0625 C-15.85463921 80.33735758 -17.68944593 79.96557827 -21 79 C-23.25 77.625 -23.25 77.625 -25 75 C-25.63791328 72.22143815 -26.08156575 69.44099626 -26.5234375 66.625 C-27.42556185 61.65592161 -29.06418392 59.67378758 -33.125 56.75 C-36.70940778 54.83222769 -39.98078057 54.61920868 -43.98046875 54.33984375 C-46.96761724 53.83717079 -48.25970406 52.39290692 -50 50 C-51.44430855 47.11138291 -51.37688506 45.20352299 -51 42 C-49.1875 39.125 -49.1875 39.125 -46 37 C-36.92155681 35.13621365 -28.52160063 38.54130221 -20.8984375 43.31640625 C-15.86709755 47.2062748 -12.98221035 52.4725332 -10 58 C-9.70676137 41.39367105 -10.88313107 26.14333057 -14.67871094 9.95019531 C-15.39119827 6.89956431 -16 4.14481299 -16 1 C-14.08351538 0.83125293 -12.16680367 0.66508357 -10.25 0.5 C-8.64898437 0.36078125 -8.64898437 0.36078125 -7.015625 0.21875 C-4.6820782 0.04947717 -2.33967818 0 0 0 Z " fill="#CDD6DA" transform="translate(418,219)"/>
<path d="M0 0 C13.54973698 1.93567671 25.65042226 9.21515327 35 19 C35.93005859 19.90105469 35.93005859 19.90105469 36.87890625 20.8203125 C53.8038368 38.31319374 56.49894624 63.86951508 56.21484375 86.9921875 C56.04470609 92.70500869 55.10744841 97.6808002 53 103 C52.63648438 103.96808594 52.27296875 104.93617187 51.8984375 105.93359375 C47.23827322 117.73433232 41.34531057 127.44863957 33 137 C32.26523437 137.85722656 31.53046875 138.71445313 30.7734375 139.59765625 C17.41685398 154.86569431 1.14503866 166.39788345 -16 177 C-17.07121094 177.66902344 -18.14242188 178.33804688 -19.24609375 179.02734375 C-24.80250991 182.30262373 -28.53637689 183.73173092 -35 183 C-31.52911789 180.13127872 -27.93433898 177.53942717 -24.22753906 174.99243164 C-15.31898736 168.85147804 -6.96236575 162.3258428 1 155 C1.55671387 154.48856445 2.11342773 153.97712891 2.68701172 153.45019531 C21.50667956 135.93464478 37.06216048 112.88979421 38.3359375 86.48828125 C39.0213256 60.96128805 33.5799501 34.23414246 16.44140625 14.47265625 C12.98368421 10.97067537 9.27018166 7.88743422 5.3828125 4.875 C3.43234818 3.34020841 1.69956157 1.80085994 0 0 Z " fill="#FABE07" transform="translate(439,20)"/>
<path d="M0 0 C1.73046875 1.8203125 1.73046875 1.8203125 3.1875 4.125 C3.92033203 5.24261719 3.92033203 5.24261719 4.66796875 6.3828125 C8.85949764 14.6183678 9.59554391 24.75380822 7.3125 33.69140625 C6.37035872 35.94861974 5.30592308 37.93330554 4 40 C3.57589844 40.69609375 3.15179688 41.3921875 2.71484375 42.109375 C-2.13104436 49.29046824 -9.1793973 54.10573185 -17.48828125 56.52734375 C-26.45383554 58.21448538 -35.08823869 57.74449219 -43 53 C-50.40760785 47.69469988 -55.57778631 41.48597704 -59 33 C-59 32.01 -59 31.02 -59 30 C-58.22398437 29.79246094 -57.44796875 29.58492188 -56.6484375 29.37109375 C-42.57760534 25.35805212 -32.33131924 19.9017683 -21.98046875 9.81640625 C-16.47400345 4.48967198 -8.07242606 -2.98587281 0 0 Z " fill="#3E50B3" transform="translate(350,310)"/>
<path d="M0 0 C9.22325942 0.92232594 14.824125 5.49507934 21.44140625 11.62890625 C32.30172909 21.6933581 43.51270957 27.69027834 58 31 C56.60669432 39.44876846 51.84567381 46.86574464 45 52 C35.57155983 57.22899124 25.5688433 60.12575826 14.8984375 57.12890625 C4.31598709 53.04327666 -2.29234658 47.32764278 -7 37 C-7.55107422 35.85144531 -7.55107422 35.85144531 -8.11328125 34.6796875 C-10.56076129 27.28333813 -9.911479 17.23732103 -7.06640625 10.0078125 C-5.12705359 6.35643057 -2.65660219 3.15525244 0 0 Z " fill="#3E50B3" transform="translate(163,309)"/>
<path d="M0 0 C22.4609505 6.24490329 42.59031633 18.66642279 60 34 C59.59007812 34.51949219 59.18015625 35.03898437 58.7578125 35.57421875 C57.94957031 36.62029297 57.94957031 36.62029297 57.125 37.6875 C56.59132813 38.37199219 56.05765625 39.05648437 55.5078125 39.76171875 C50.81799838 46.72354126 51.03190519 54.90512024 52 63 C53.20042844 67.59833541 54.91946912 71.73519986 57 76 C57.37253906 76.80953125 57.74507813 77.6190625 58.12890625 78.453125 C62.48779289 87.14052277 69.46289462 94.00896751 77 100 C77 100.33 77 100.66 77 101 C67.6957039 102.27706025 60.42245904 97.32912889 53.1875 91.8828125 C42.95766893 83.11884137 35.18241044 71.90528047 33.5546875 58.26953125 C33.39609762 53.25280466 33.53169143 49.19205819 35.375 44.5 C39.14941737 40.90531679 43.42690886 38.46109103 48 36 C35.53642992 22.25811505 17.7637587 7.9212529 0 2 C0 1.34 0 0.68 0 0 Z " fill="#CCD5D9" transform="translate(309,111)"/>
<path d="M0 0 C5.66123158 3.86620693 8.95205835 9.34062617 12.64038086 14.97070312 C13.8084822 16.74390091 15.0037563 18.49650985 16.20117188 20.25 C23.31064156 30.89582187 23.31064156 30.89582187 22 38 C19.93095202 41.10357196 18.57231176 41.83307574 15 42.875 C11.75816877 43.0100763 10.69542131 42.67686885 8 41 C6.65966797 39.39599609 6.65966797 39.39599609 5.4921875 37.5234375 C5.06292969 36.853125 4.63367188 36.1828125 4.19140625 35.4921875 C3.75699219 34.79351562 3.32257813 34.09484375 2.875 33.375 C1.30349005 30.86424941 -0.30236459 28.43110855 -2 26 C-2.66 26 -3.32 26 -4 26 C-5.35838015 27.86997787 -6.6374563 29.79794993 -7.875 31.75 C-13.99224001 41.37941964 -13.99224001 41.37941964 -19.4375 43.0625 C-23 43 -23 43 -25.875 40.9375 C-28.28604597 37.60458351 -28.87843179 36.08955468 -29 32 C-27.67559714 29.26190869 -26.37707782 26.99057869 -24.6875 24.5 C-24.23689209 23.81019043 -23.78628418 23.12038086 -23.32202148 22.40966797 C-21.90342366 20.25729569 -20.45703462 18.12650933 -19 16 C-18.53432617 15.31583008 -18.06865234 14.63166016 -17.58886719 13.92675781 C-16.25884627 11.98404122 -14.91580826 10.05155471 -13.5625 8.125 C-12.94411255 7.24231445 -12.94411255 7.24231445 -12.31323242 6.34179688 C-8.73215638 1.36328175 -6.27113851 -0.75253662 0 0 Z " fill="#050505" transform="translate(259,384)"/>
<path d="M0 0 C11.40474657 3.35183087 17.98503558 8.54614482 23.8359375 18.73046875 C25.96732885 22.88596665 26.22023656 26.30976031 26.3125 30.9375 C26.36857422 32.77634766 26.36857422 32.77634766 26.42578125 34.65234375 C26 38 26 38 24.1640625 40.3828125 C21.35358135 42.48306376 19.50222423 42.92852604 16 43 C13.41015625 41.90234375 13.41015625 41.90234375 11 40 C9.9609375 37.0390625 9.9609375 37.0390625 9.375 33.625 C8.27713708 27.4227874 7.10749521 23.51739655 1.875 19.75 C-1.70940778 17.83222769 -4.98078057 17.61920868 -8.98046875 17.33984375 C-11.96761724 16.83717079 -13.25970406 15.39290692 -15 13 C-16.44430855 10.11138291 -16.37688506 8.20352299 -16 5 C-12.04137721 -1.27919477 -6.72915784 -1.07113681 0 0 Z " fill="#040404" transform="translate(383,256)"/>
<path d="M0 0 C2.32536063 3.48804095 2.33457898 4.90140754 2 9 C1.13691588 11.58925236 0.58346712 12.65352615 -1.76953125 14.05078125 C-4.17796865 15.07573797 -6.35703147 15.5200128 -8.9375 15.9375 C-15.47158421 17.18563497 -15.47158421 17.18563497 -20.1484375 21.69140625 C-22.08758293 25.20524779 -23.1706571 28.24548976 -23.5 32.25 C-24 36 -24 36 -25.625 38.4375 C-28.88851276 40.58454787 -31.09305652 41.06854287 -35 41 C-38.04677971 39.3793725 -38.6839214 39.02640101 -40 36 C-41.71068208 24.9570604 -38.83615855 17.69943556 -32.8125 8.75 C-24.97164009 1.08338142 -10.62182046 -6.83808184 0 0 Z " fill="#040404" transform="translate(143,258)"/>
<path d="M0 0 C1.73046875 1.8203125 1.73046875 1.8203125 3.1875 4.125 C3.92033203 5.24261719 3.92033203 5.24261719 4.66796875 6.3828125 C8.85949764 14.6183678 9.59554391 24.75380822 7.3125 33.69140625 C6.37035872 35.94861974 5.30592308 37.93330554 4 40 C3.57589844 40.69609375 3.15179688 41.3921875 2.71484375 42.109375 C-2.14484913 49.31092544 -9.16084305 54.02554025 -17.44921875 56.54296875 C-22.59288081 57.46457436 -27.7981852 57.21707728 -33 57 C-33 56.67 -33 56.34 -33 56 C-32.443125 56.03222656 -31.88625 56.06445312 -31.3125 56.09765625 C-27.48249137 56.03942977 -24.8920714 55.68170705 -21.796875 53.31640625 C-12.4038584 43.2601423 -9.60133144 32.40985378 -9.76953125 19.078125 C-9.97817319 13.34246509 -11.43773818 8.12452364 -14 3 C-12.61256594 2.29570341 -11.21455365 1.61222402 -9.8125 0.9375 C-9.03519531 0.55464844 -8.25789063 0.17179687 -7.45703125 -0.22265625 C-4.45621741 -1.17203932 -2.94955544 -1.08086315 0 0 Z " fill="#273490" transform="translate(350,310)"/>
<path d="M0 0 C5.61 0 11.22 0 17 0 C17.13582711 3.50132114 17.2345137 6.99730117 17.3125 10.5 C17.35439453 11.48226563 17.39628906 12.46453125 17.43945312 13.4765625 C17.55250544 20.25970143 16.52434894 24.8174916 12 30 C6.52442887 34.76409354 0.97787286 34.37549092 -6 34 C-5.64848877 33.42459473 -5.29697754 32.84918945 -4.93481445 32.25634766 C-0.9894769 25.22308229 -0.23113673 19.35567273 -0.1875 11.375 C-0.16236328 10.27542969 -0.13722656 9.17585938 -0.11132812 8.04296875 C-0.05305393 5.36235569 -0.0235188 2.68114325 0 0 Z " fill="#CDD6DA" transform="translate(324,461)"/>
<path d="M0 0 C8.415 2.475 8.415 2.475 17 5 C15.29298647 13.53506765 11.00190365 20.70908784 4 26 C-2.52127961 29.8139605 -8.48095137 31.63021072 -16 32 C-14.700625 30.5459375 -14.700625 30.5459375 -13.375 29.0625 C-5.79410749 20.19124281 -0.90517078 11.76722012 0 0 Z " fill="#273490" transform="translate(204,335)"/>
<path d="M0 0 C9.01937003 0.42949381 15.08008875 5.69669024 21.390625 11.60546875 C25.41280851 15.29648446 29.69932029 18.64180967 34 22 C28.45385599 23.84871467 22.73389428 20.27011233 17.62890625 17.8984375 C10.2266863 14.01919924 2.79021954 8.93809218 -2 2 C-1.34 1.34 -0.68 0.68 0 0 Z " fill="#273490" transform="translate(163,309)"/>
</svg>
